<?xml version="1.0" standalone="no"?>
<!DOCTYPE svg PUBLIC "-//W3C//DTD SVG 20010904//EN"
 "http://www.w3.org/TR/2001/REC-SVG-20010904/DTD/svg10.dtd">
<svg version="1.0" xmlns="http://www.w3.org/2000/svg"
 width="1280.000000pt" height="1280.000000pt" viewBox="0 0 1280.000000 1280.000000"
 preserveAspectRatio="xMidYMid meet">
<metadata>
Created by potrace 1.16, written by Peter Selinger 2001-2019
</metadata>
<g transform="translate(0.000000,1280.000000) scale(0.100000,-0.100000)"
fill="#000000" stroke="none">
<path d="M6315 12694 c-16 -8 -334 -318 -705 -688 l-675 -673 -144 -47 c-420
-137 -877 -361 -1256 -615 -1190 -800 -1999 -2079 -2214 -3501 -74 -495 -74
-1045 0 -1540 114 -751 402 -1490 827 -2117 693 -1021 1718 -1754 2916 -2082
1512 -414 3177 -97 4429 843 285 214 608 516 827 771 724 847 1155 1905 1230
3023 66 983 -171 2017 -659 2872 -641 1124 -1673 1964 -2897 2359 l-159 52
-665 663 c-366 365 -679 671 -697 680 -41 20 -119 21 -158 0z m499 -1529
c1507 -133 2846 -950 3648 -2225 363 -579 607 -1255 692 -1925 28 -216 36
-356 36 -615 0 -549 -73 -1003 -245 -1515 -281 -841 -788 -1585 -1465 -2151
-699 -585 -1565 -964 -2465 -1078 -327 -42 -817 -47 -1115 -12 -990 117 -1864
496 -2606 1133 -139 118 -398 377 -514 513 -739 863 -1150 1975 -1150 3110 0
1832 1053 3508 2705 4305 555 268 1138 423 1765 468 138 10 563 5 714 -8z"/>
</g>
</svg>
